<svg width="310" height="400" version="1.1" xmlns="http://www.w3.org/2000/svg">    
  <!--Кайл-->
  <!--Штаны-->
  <rect x="75" y="337" width="156" height="32" fill="#24857e" />
  <!--Ступни-->
  <path d="M64 369 Q151 356 244 368 L245 372 L172 372 Q154 369 133 372 L66 372 Z" fill="#444046" />
  <!--Куртка-->
  <path d="M76 231 Q36 265 40 314 L64 335 Q140 360 238 342 L263 318 Q265 271 230 234 Z" fill="#ff6117" />
  <!--Карманы-->
  <polyline points="133,284 102,284 102,321 133,321 133,285 118,300 102,284" fill="none" stroke="black" stroke-width="2" />
  <polyline points="207,281 176,282 176,318 208,318 207,282 192,299 176,282" fill="none" stroke="black" stroke-width="2" />
  <!--Застежка-->
  <polyline points="156,269 155,350" stroke="black" stroke-width="2" />
  <path d="M78 285 Q71 299 71 315" stroke="black" stroke-width="0.8" fill="none" />
  <path d="M227 284 Q230 299 231 320" stroke="black" stroke-width="0.8" fill="none" />
  <!--Воротник-->
  <path d="M75 234 C87 251 140 283 156 268 Q180 281 235 238 " stroke="#3a703e" />
  <path d="M74 233 C87 250 140 282 156 267 Q180 280 235 237 L234 227 Z" fill="#00ad50" />
  <!--Варежки-->
  <circle fill="#4dc43d" cx="53.5" cy="321.5" r="19.5"/>
  <circle fill="#4dc43d" cx="67" cy="315" r="7.5" stroke="black" stroke-width="0.5" />
  <circle fill="#4dc43d" cx="247.5" cy="326.5" r="19"/>
  <circle fill="#4dc43d" cx="234" cy="321.5" r="7.5" stroke="black" stroke-width="0.5" />       
  <!--Голова-->
  <circle fill="#ffecc1" cx="153" cy="141" r="120"/>
  <!--Шапка-->
  <rect x="38" y="10" rx="20" ry="20" width="232" height="90" fill="#4ec33d"/>
  <rect x="38" y="83" width="232" height="23" fill="#4ec33d"/>
  <ellipse cx="31.5" cy="148" rx="57.5" ry="22" fill="#4fc33d" transform="rotate(-70 31.5 148)"/>
  <path d="M37 99 A57.5 22 -70 0 1 54 94" stroke="black" stroke-width="0.5" fill="none" />
  <ellipse cx="273" cy="150" rx="57.5" ry="22" fill="#4fc33d" transform="rotate(70 273 150)"/>
  <path d="M255 95 A57.5 22 70 0 1 271 103" stroke="black" stroke-width="0.5" fill="none" />  
  <path d="M54 54 L256 54 L256 118 Q155 98 54 118 Z" fill="#00ad50" />
  <!--Лицо-->
  <!--Брови-->
  <polyline points="88,114 119,96" stroke="black" stroke-width="4" />      
  <polyline points="186,99 219,114" stroke="black" stroke-width="4" />
  <!--Глаза-->
  <path d="M101 124 A38 30 -55 0 1 153 133" stroke="#deb880" stroke-width="2" fill="none" />
  <path d="M161 123 A38 30 55 0 1 216 133" stroke="#deb880" stroke-width="2" fill="none" />
  <ellipse cx="119" cy="150" rx="40" ry="32" fill="#fdfdfd" transform="rotate(-55 119 150)"/>
  <ellipse cx="189" cy="150" rx="40" ry="32" fill="#fdfdfd" transform="rotate(55 189 150)"/>
  <circle fill="#332e32" cx="132" cy="152" r="4"/>
  <circle fill="#332e32" cx="171" cy="152" r="4"/>
  <path d="M155 152 A40 32 55 0 1 155 135" stroke="black" stroke-width="0.5" fill="none" />
  <!--Рот-->
  <path d="M123 216 Q157 212 194 216 Q177 235 161 244 Q137 235 123 218 Z" fill="#342f33" stroke="#342f33" />
  <!--Зубы-->
  <path d="M129 218 Q163 213 192 217 L184 223 L182 225 L137 226 L132 223 Z" fill="white" />
  <polyline points="144,216 143,227" fill="none" stroke="black" stroke-width="1.2" />
  <polyline points="160,216 160,228" fill="none" stroke="black" stroke-width="1.2" />
  <polyline points="178,216 174,228" fill="none" stroke="black" stroke-width="1.2" />
</svg>